<?xml version="1.0" encoding="utf-8"?>
<!-- Generator: Adobe Illustrator 18.0.0, SVG Export Plug-In . SVG Version: 6.00 Build 0)  -->
<!DOCTYPE svg PUBLIC "-//W3C//DTD SVG 1.1//EN" "http://www.w3.org/Graphics/SVG/1.1/DTD/svg11.dtd">
<svg version="1.1" id="Layer_1" xmlns="http://www.w3.org/2000/svg" xmlns:xlink="http://www.w3.org/1999/xlink" x="0px" y="0px"
	 viewBox="0 0 464.2 290.5" enable-background="new 0 0 464.2 290.5" xml:space="preserve">
<g>
	<g>
		<circle fill="#F37835" cx="68.7" cy="109.8" r="12.2"/>
		<path fill="#F37835" d="M68.7,109.8"/>
	</g>
	<g>
		<circle fill="#F37835" cx="356.4" cy="84.1" r="12.2"/>
		<path fill="#F37835" d="M356.4,84.1"/>
	</g>
	<path fill="#231F20" d="M16.3,32.8V76H39c10.9,0,10.9,16.3,0,16.3H16.3V201c0,18.1,41.3,22.9,43.1-13.4l0.3-47.1
		c0-10.9,16.3-10.9,16.3,0l0,44.3c3.8,25,36.4,17.8,36.4-3.9l0-91.7c1.2-45.1,68.2-41.1,66.8,1.9v89c0,10.9-16.3,10.9-16.3,0l0-89.3
		c0.8-21.6-33.5-24.8-34.1-1.3l0,91.8c-3.1,37.1-39.9,45.2-59.4,25.8c-7.2,33-67.2,36.8-69.3-8L0,32.8C0,21.9,16.3,21.9,16.3,32.8z"
		/>
	<path fill="#231F20" d="M363.9,111.8l0,49c-0.6,23.2,31.8,27.2,32.8,5.4V32c0-10.9,16.3-10.9,16.3,0v43.1h24.1
		c10.9,0,10.9,16.3,0,16.3H413v98.5c0,29.1,30.1,35,35,12.4c2.3-10.6,18.3-7.2,16,3.4c-7.9,36.7-63.1,38.8-66.2-15.1
		c-19,12.3-40.8,2.8-43.2-10.8c-20.7,22.2-58.3,8.1-58.1-23.3V8.2c0-10.9,16.3-10.9,16.3,0v148.4c0,17.1,31.9,27.7,34.7-1.8v-43
		C347.5,100.9,363.9,100.9,363.9,111.8z"/>
	<path fill-rule="evenodd" clip-rule="evenodd" fill="#F37835" d="M238,180.3c-14.9,0-27.5-5.1-37.6-15.4
		c-10.2-10.3-15.2-22.9-15.2-37.8c0-15,5.1-27.5,15.2-37.7c10.2-10.2,22.7-15.3,37.6-15.3s27.5,5.1,37.6,15.3
		c10.2,10.2,15.2,22.7,15.2,37.7v50.1c0,9.8-3.4,18.2-10.3,25c-6.8,6.9-15.1,10.3-24.8,10.3H238c-6.9,0-12.8,2.5-17.6,7.4
		c-4.8,4.9-7.3,10.8-7.3,17.7s2.4,12.8,7.3,17.6c4.8,4.8,10.7,7.3,17.6,7.3c6.9,0,12.8-2.4,17.6-7.3c4.8-4.8,7.3-10.7,7.3-17.6
		c0-4,1.3-7.4,4-10.1c2.7-2.7,6.1-4,10.1-4c4.1,0,7.5,1.3,10.1,3.9c2.6,2.6,3.8,6,3.8,10.2c0,14.8-5.1,27.3-15.3,37.5
		c-10.2,10.2-22.7,15.3-37.5,15.3c-14.8,0-27.3-5.1-37.5-15.3c-10.2-10.2-15.3-22.7-15.3-37.5c0-14.8,5.1-27.3,15.2-37.6
		c10.2-10.3,22.6-15.5,37.4-15.5h18c1.9,0,3.6-0.7,5-2.2c1.4-1.5,2.1-3.2,2.1-5.1v-50.1c0-6.9-2.4-12.8-7.3-17.7
		c-4.8-4.9-10.7-7.3-17.6-7.3c-6.9,0-12.8,2.4-17.6,7.3c-4.8,4.9-7.3,10.8-7.3,17.7c0,6.9,2.4,12.9,7.3,17.8
		c4.8,4.9,10.7,7.4,17.6,7.4c4.1,0,7.5,1.3,10.2,3.8c2.6,2.6,3.9,5.9,3.9,10.1c0,4.1-1.3,7.5-3.9,10.2
		C245.6,179,242.2,180.3,238,180.3z"/>
</g>
</svg>
